<svg xmlns="http://www.w3.org/2000/svg" viewBox="0 0 31 32" width="32" height="33" fill="currentColor"><title>arvodia-logo</title><defs><clipPath clipPathUnits="userSpaceOnUse" id="cp1"><path d="M-0.9 39.58L33.47 39.58L33.47 -1.3L-0.9 -1.3L-0.9 39.58Z" /></clipPath><clipPath clipPathUnits="userSpaceOnUse" id="cp2"><path d="M-0.9 39.58L33.47 39.58L33.47 -1.3L-0.9 -1.3L-0.9 39.58Z" /></clipPath><clipPath clipPathUnits="userSpaceOnUse" id="cp3"><path d="M-0.9 39.58L33.47 39.58L33.47 -1.3L-0.9 -1.3L-0.9 39.58Z" /></clipPath></defs><g ><g ><g clip-path="url(#cp1)"><g ><g ><path class="shp0" d="M15 17.56C7.16 18.43 -0.47 20.73 0.99 29.17C-0.69 26.47 -0.61 22.54 2.86 19.25C6.88 15.43 11.02 14.7 15 14.47L15 17.56Z" /></g></g></g></g><g ><g clip-path="url(#cp2)"><g ><g ><path class="shp0" d="M24 16.9C22.56 17.01 20.96 17.09 19.29 17.2L19.29 14.28C22.2 14.11 24.96 13.68 27.45 11.83C29.07 10.39 29.69 9.83 30.37 8.23C30.73 11.54 28.87 16.41 24 16.9Z" /></g></g></g></g><g ><g clip-path="url(#cp3)"><g ><g ><path class="shp0" d="M2.18 30.85C7.35 33.22 11.17 31.08 13.64 28.88C15.84 26.92 18.91 24.43 18.84 14.24C19.49 4.01 24.69 -0.12 31.94 1.07C25.04 -1.03 22.81 0.97 20.18 3.32C16.86 6.44 15.66 9.7 15.56 14.81C15.56 20.19 14.7 24.47 11.89 27.76C9.34 30.66 7 31.51 2.18 30.85Z" /></g><g ><path class="shp0" d="M2.18 30.85C7.35 33.22 11.17 31.08 13.64 28.88C15.84 26.92 18.91 24.43 18.84 14.24C19.49 4.01 24.69 -0.12 31.94 1.07C25.04 -1.03 22.81 0.97 20.18 3.32C16.86 6.44 15.66 9.7 15.56 14.81C15.56 20.19 14.7 24.47 11.89 27.76C9.34 30.66 7 31.51 2.18 30.85Z" /></g></g></g></g><g ></g></g></svg>